<?xml version="1.0" encoding="UTF-8"?>
<!-- Svg Vector Icons : http://www.onlinewebfonts.com/icon -->
<svg enable-background="new 0 0 1000 1000" version="1.1" viewBox="0 0 1e3 1e3" xml:space="preserve" xmlns="http://www.w3.org/2000/svg"><defs><style>.cls-1{fill:#fff}.cls-2{fill:#2f3a3e}.cls-3{fill:#3ab14a}</style></defs>
<metadata> Svg Vector Icons : http://www.onlinewebfonts.com/icon </metadata>

<g transform="matrix(.1 0 0 -.1 .50857 768.23)"><path d="m2150.2 5012c-390.6-42.1-808-206.8-1120.1-442.3-645.2-480.5-995.6-1269.4-913.2-2058.2 59.3-562.9 289.1-1030.1 698.8-1424.5 310.2-296.8 656.7-482.5 1114.3-593.5 122.5-30.6 375.3-32.6 2948.5-40.2 2000.8-3.8 2870 0 3004 15.3 765.8 88.1 1443.6 572.5 1784.4 1273.2 178.1 365.7 254.7 744.8 229.8 1125.8-67 1028.1-767.8 1851.4-1792.1 2106.1-160.8 40.2-180 40.2-3025.1 44-1573.8 0-2892.9-1.9-2929.3-5.7zm5736.2-333.2c285.3-38.3 635.7-178 859.7-338.9 1076-777.3 1108.5-2341.5 65.1-3153.3-214.4-168.5-448-281.5-737.1-358l-170.4-44h-5801.4l-170.4 44c-377.2 101.5-631.8 245.1-903.7 511.2-291 285.3-453.8 566.7-549.5 947.7-55.5 222.1-59.4 649-5.8 871.2 134 574.4 522.7 1072.2 1037.7 1328.7 174.2 86.2 425 168.5 591.6 191.5 176.3 24.8 5604.2 24.8 5784.2-0.1z"/><path d="m2159.8 4355.3c-654.8-103.4-1181.4-576.3-1353.7-1215.8-57.4-216.3-57.4-587.8 1.9-804.1 158.9-589.7 591.6-1022.4 1179.4-1179.4 214.4-57.4 587.8-57.4 804.1 0 572.5 151.3 1026.2 606.9 1179.4 1179.4 57.4 212.5 57.4 589.7 1.9 796.5-191.5 712.2-788.8 1198.6-1514.5 1233-101.3 3.8-235.3 0-298.5-9.6zm614.6-371.5c208.7-67 375.3-168.5 534.2-327.4 157-157 258.5-323.6 329.3-536.1 42.1-130.2 49.8-185.7 49.8-382.9 0-195.3-7.7-252.7-47.9-377.2-74.7-225.9-176.1-390.6-340.8-555.2-302.5-298.7-739-432.7-1148.8-352.3-105.3 21.1-227.8 63.2-344.6 120.6-147.4 72.7-208.7 116.8-337 243.1-126.4 128.3-170.4 189.6-243.1 337-195.3 398.2-195.3 769.7 0 1167.9 72.7 149.3 116.8 208.7 245.1 337 128.3 130.2 187.6 172.3 337 243.2 99.6 47.9 227.8 95.7 285.3 107.2 57.4 11.5 122.5 24.9 143.6 28.7 93.7 23 392.4-7.6 537.9-53.6z"/></g></svg>
