<?xml version="1.0" encoding="UTF-8"?>
<!-- Svg Vector Icons : http://www.onlinewebfonts.com/icon -->
<svg enable-background="new 0 0 1000 1000" version="1.1" viewBox="0 0 1e3 1e3" xml:space="preserve" xmlns="http://www.w3.org/2000/svg"><defs><style>.cls-1{fill:#fff}.cls-2{fill:#2f3a3e}.cls-3{fill:#3ab14a}</style></defs>
<metadata> Svg Vector Icons : http://www.onlinewebfonts.com/icon </metadata>

<g transform="matrix(.1 0 0 -.1 .50857 768.23)"><path d="m2032.1 4991c-482.5-76.6-898-291-1256-649.1-365.7-363.8-574.4-775.4-651-1275.1-181.8-1211.9 641.5-2356.9 1863-2588.6 103.4-19.2 735.2-24.9 3021.3-24.9 2749.4 0 2898.7 1.9 3053.8 36.4 1204.3 264.2 1991.2 1382.4 1811.2 2577.1-76.6 499.7-285.3 911.3-651 1275.1-363.8 365.7-775.4 574.4-1275.1 651-258.5 38.3-5665.4 36.4-5916.2-1.9zm6017.7-689.3c574.4-166.6 987.9-587.8 1144.9-1167.9 32.5-120.6 42.1-206.8 42.1-402.1s-9.6-281.5-42.1-402.1c-158.9-587.8-593.5-1022.4-1179.4-1179.4-214.4-57.4-587.8-57.4-804.1 0-574.4 151.3-1026.2 603.1-1181.3 1179.4-57.4 214.4-57.4 587.8 1.9 804.1 172.3 643.3 691.2 1112.4 1347.9 1217.7 174.2 26.9 484.4 3.9 670.1-49.7z"/></g></svg>
